<svg xmlns="http://www.w3.org/2000/svg" width="47.999" height="47.875" viewBox="0 0 47.999 47.875">
  <g>
    <path d="M45.921,14.107A24.028,24.028,0,0,0,26.5.006a.728.728,0,0,0-.8.725V22.477a.73.73,0,0,0,.363.631L44.892,33.981a.736.736,0,0,0,.364.1.76.76,0,0,0,.225-.035.734.734,0,0,0,.439-.4,24,24,0,0,0,0-19.541Zm-1.011,18.2L27.152,22.056V1.55A22.545,22.545,0,0,1,44.91,32.308Z" fill="#1a171b"/>
    <path d="M43.194,36.917,22.3,24.856V.729A.728.728,0,0,0,21.5,0,24,24,0,0,0,2.031,33.535a.823.823,0,0,0,.04.111A24.006,24.006,0,0,0,4.578,37.98a.6.6,0,0,0,.068.08A24.032,24.032,0,0,0,21.5,47.744a23.9,23.9,0,0,0,5,0,24.022,24.022,0,0,0,16.919-9.771.729.729,0,0,0,.123-.578A.715.715,0,0,0,43.194,36.917ZM26.35,46.3A22.536,22.536,0,0,1,5.762,37.122a.847.847,0,0,0-.066-.078,22.6,22.6,0,0,1-2.249-3.885.831.831,0,0,0-.039-.109A22.554,22.554,0,0,1,20.85,1.55V25.275a.73.73,0,0,0,.363.631L41.755,37.765A22.557,22.557,0,0,1,26.35,46.3Z" fill="#1a171b"/>
    <path d="M20.082,33.349a.729.729,0,0,0,.728.727h7.151a.728.728,0,1,0,0-1.456H20.81A.728.728,0,0,0,20.082,33.349Z" fill="#1a171b"/>
    <path d="M12.688,34.075H16.93a.728.728,0,1,0,0-1.456H12.688a.728.728,0,1,0,0,1.456Z" fill="#1a171b"/>
    <path d="M27.96,37.47H12.688a.727.727,0,1,0,0,1.454H27.96a.727.727,0,1,0,0-1.454Z" fill="#1a171b"/>
    <path d="M27.96,42.319H21.416a.727.727,0,1,0,0,1.454H27.96a.727.727,0,1,0,0-1.454Z" fill="#1a171b"/>
    <path d="M40.122,11.411h-2.3a.728.728,0,1,0,0,1.456h2.3a.728.728,0,1,0,0-1.456Z" fill="#1a171b"/>
    <path d="M30.668,12.866H33.94a.728.728,0,1,0,0-1.456H30.668a.728.728,0,1,0,0,1.456Z" fill="#1a171b"/>
    <path d="M40.122,16.261H30.668a.727.727,0,1,0,0,1.454h9.454a.727.727,0,1,0,0-1.454Z" fill="#1a171b"/>
    <path d="M40.122,21.109H37.456a.728.728,0,0,0,0,1.456h2.666a.728.728,0,1,0,0-1.456Z" fill="#1a171b"/>
  </g>
</svg>
